<?xml version="1.0" standalone="no"?>
<!DOCTYPE svg PUBLIC "-//W3C//DTD SVG 20010904//EN"
 "http://www.w3.org/TR/2001/REC-SVG-20010904/DTD/svg10.dtd">
<svg version="1.0" xmlns="http://www.w3.org/2000/svg"
 width="1246.000000pt" height="1246.000000pt" viewBox="0 0 1246.000000 1246.000000"
 preserveAspectRatio="xMidYMid meet">
<metadata>
Created by potrace 1.14, written by Peter Selinger 2001-2017
</metadata>
<g transform="translate(0.000000,1246.000000) scale(0.100000,-0.100000)"
fill="#000000" stroke="none">
<path d="M0 6230 l0 -6230 6230 0 6230 0 0 6230 0 6230 -6230 0 -6230 0 0
-6230z m5562 4270 c45 -13 78 -52 78 -94 0 -17 -9 -65 -21 -106 -15 -56 -3022
-7791 -3103 -7982 -22 -51 -71 -105 -120 -131 -37 -20 -58 -22 -237 -25 -227
-4 -257 3 -286 63 -16 34 -16 40 -1 98 25 95 3055 7953 3096 8031 43 80 92
124 159 142 59 16 382 18 435 4z m3801 -1814 c341 -58 718 -227 1005 -452 45
-36 92 -79 102 -97 24 -38 26 -94 5 -143 -24 -57 -476 -781 -517 -829 -77 -88
-127 -85 -257 15 -384 297 -708 378 -1105 279 -308 -78 -577 -280 -775 -584
-141 -215 -212 -441 -231 -733 -5 -82 -10 -790 -10 -1595 0 -1627 6 -1498 -75
-1537 -41 -20 -53 -20 -633 -18 -579 3 -591 3 -619 24 -15 11 -36 36 -46 55
-16 32 -17 178 -15 2721 l3 2687 21 27 c11 15 33 37 48 48 26 20 42 21 379 24
194 2 367 0 385 -3 45 -8 117 -76 136 -128 9 -23 66 -208 127 -412 61 -203
112 -371 113 -372 1 -1 19 27 40 62 101 173 317 418 483 549 299 234 625 377
973 426 87 12 354 4 463 -14z"/>
</g>
</svg>
