<?xml version="1.0" encoding="UTF-8" standalone="no"?>
<!DOCTYPE svg PUBLIC "-//W3C//DTD SVG 1.1//EN" "http://www.w3.org/Graphics/SVG/1.1/DTD/svg11.dtd">
<svg width="100%" height="100%" viewBox="0 0 856 856" version="1.1" xmlns="http://www.w3.org/2000/svg" xmlns:xlink="http://www.w3.org/1999/xlink" xml:space="preserve" xmlns:serif="http://www.serif.com/" style="fill-rule:evenodd;clip-rule:evenodd;stroke-linejoin:round;stroke-miterlimit:2;">
    <path d="M329.22,833.352C305.746,835.632 283.246,833.105 261.969,823.405C245.784,816.027 233.054,804.441 224.153,789.055C221.572,784.593 220.855,779.085 218.897,774.212C218.233,772.562 216.487,770.311 215.05,770.165C197.359,768.371 181.9,760.906 167.707,750.95C158.645,744.593 150.453,736.95 142.148,729.572C124.945,714.288 112.544,695.381 102.545,674.911C95.845,661.197 90.309,646.818 88.235,631.668C86.499,618.984 85.553,605.974 86.303,593.228C87.124,579.276 90.851,565.603 97.533,553.056C99.321,549.7 99.068,548.08 95.567,545.694C81.022,535.78 71.166,522.068 63.43,506.264C56.732,492.581 52.068,478.318 48.522,463.717C45.777,452.413 44.209,440.737 43.134,429.133C41.602,412.598 40.233,395.976 40.257,379.393C40.275,367.416 42.021,355.323 44.178,343.497C46.801,329.114 50.104,314.797 54.134,300.744C59.172,283.177 66.832,266.493 78.522,252.417C86.796,242.454 95.764,232.554 108.604,227.718C109.691,227.308 110.819,225.435 110.892,224.181C111.163,219.531 110.933,214.854 111.012,210.189C111.307,192.843 115.041,176.285 121.917,160.328C130.393,140.662 142.288,123.4 157.827,108.771C174.079,93.471 191.911,80.463 213.633,73.846C218.39,72.398 223.319,70.635 228.175,70.616C234.256,70.593 236.731,66.414 239.551,62.769C247.08,53.035 256.737,45.988 266.963,39.484C280.108,31.124 294.458,25.814 309.442,21.897C325.206,17.777 340.983,16.038 357.388,17.725C368.847,18.904 379.554,22.089 389.969,26.238C396.286,28.755 401.787,33.351 407.588,37.115C410.483,38.993 411.069,41.77 411.093,45.213C411.237,65.464 410.926,610.93 411.134,762.569C411.152,775.442 405.615,785.833 398.652,795.441C393.396,802.694 386.609,809.146 379.513,814.686C368.433,823.336 355.302,828.241 341.715,831.627C337.791,832.605 333.622,832.604 329.22,833.352Z" style="fill:white;fill-rule:nonzero;"/>
    <path d="M444.856,762.367C445.05,571.078 445.079,94.188 444.89,47.533C444.869,42.313 445.786,38.544 450.607,35.744C456.94,32.066 462.754,27.946 469.983,25.441C475.695,23.461 481.142,20.551 487.293,20.003C496.598,19.173 505.924,18.532 515.252,18.028C528.279,17.322 540.725,20.455 553.132,23.948C569.709,28.616 584.798,36.223 598.749,46.235C607.59,52.58 615.249,60.029 621.128,69.253C621.645,70.063 622.896,70.963 623.757,70.916C638.506,70.111 651.052,76.536 663.43,83.162C675.774,89.77 687.047,98.062 697.135,107.742C715.755,125.608 729.776,146.715 738.321,171.061C741.386,179.793 742.668,189.262 743.851,198.511C744.895,206.67 744.499,215.004 745.14,223.229C745.27,224.9 746.824,227.123 748.338,227.922C772.953,240.912 787.32,262.466 796.778,287.459C802.604,302.851 806.889,318.906 810.745,334.933C812.979,344.216 813.445,354.013 813.896,363.617C814.618,379.014 815.534,394.486 814.75,409.843C814.006,424.404 811.833,438.982 809.085,453.322C806.555,466.53 803.263,479.726 798.797,492.396C792.563,510.084 783.048,526.108 769.234,539.157C766.44,541.796 763.095,543.905 759.821,545.967C757.084,547.69 756.546,549.489 758.013,552.424C763.963,564.33 767.712,576.843 769.086,590.179C771.105,609.775 768.846,628.839 763.718,647.744C758.701,666.237 750.183,683.098 739.876,699.05C735.221,706.254 729.869,713.171 723.929,719.349C712.766,730.958 701.804,742.832 687.997,751.619C675.024,759.875 661.632,767.819 646.332,769.38C638.188,770.21 637.28,773.736 635.433,779.821C630.203,797.046 618.738,809.279 603.304,818.451C591.061,825.726 577.853,829.789 564.199,832.86C560.715,833.644 557.057,833.909 553.474,833.95C541.469,834.091 529.507,834.618 517.538,832.145C503.478,829.24 490.633,824.085 478.575,816.262C467.503,809.079 458.702,799.801 452.475,788.527C448.112,780.626 444.846,772.108 444.856,762.367Z" style="fill:white;fill-rule:nonzero;"/>
</svg>
