<?xml version="1.0" encoding="UTF-8"?>
<svg id="Capa_1" data-name="Capa 1" xmlns="http://www.w3.org/2000/svg" xmlns:xlink="http://www.w3.org/1999/xlink" viewBox="0 0 114.57 114.58" width="100%" height="100%">
  <defs>
    <style>
      .cls-1 {
        fill: url(#Degradado_sin_nombre_28);
      }

      .cls-1, .cls-2, .cls-3 {
        stroke-width: 0px;
      }

      .cls-2 {
        fill: url(#Degradado_sin_nombre_36);
      }

      .cls-3 {
        fill: url(#Degradado_sin_nombre_34);
      }
    </style>
    <radialGradient id="Degradado_sin_nombre_28" data-name="Degradado sin nombre 28" cx="39.93" cy="62.52" fx="39.93" fy="62.52" r="86.31" gradientUnits="userSpaceOnUse">
      <stop offset=".44" stop-color="#fff"/>
      <stop offset="1" stop-color="#fff" stop-opacity="0"/>
    </radialGradient>
    <radialGradient id="Degradado_sin_nombre_34" data-name="Degradado sin nombre 34" cx="30.07" cy="36.44" fx="30.07" fy="36.44" r="77.89" gradientUnits="userSpaceOnUse">
      <stop offset=".47" stop-color="#fff"/>
      <stop offset="1" stop-color="#fff" stop-opacity="0"/>
    </radialGradient>
    <radialGradient id="Degradado_sin_nombre_36" data-name="Degradado sin nombre 36" cx="58.91" cy="37.15" fx="82.72" fy="-13.53" r="60.94" gradientUnits="userSpaceOnUse">
      <stop offset=".55" stop-color="#fff"/>
      <stop offset="1" stop-color="#fff" stop-opacity="0"/>
    </radialGradient>
  </defs>
  <path class="cls-1" d="M114.57,57.27h0v.02c0,31.64-25.64,57.29-57.28,57.29-5.03,0-9.92-.65-14.57-1.87C18.14,106.27,0,83.9,0,57.29c0-.45.01-.9.02-1.35,0-.29.01-.59.03-.88.97,20.09,17.9,36.07,38.63,36.07,12.01,0,22.74-5.36,29.84-13.78,3.18-3.78,5.64-8.17,7.13-12.97.81-2.56,1.35-5.25,1.58-8.02h0c0-.15.02-.28.03-.41.68-9.71,8.76-17.38,18.63-17.38.08,0,.16.01.24.01.47.01.93.03,1.38.07.2.02.4.04.6.07.41.04.82.11,1.22.18.14.03.27.05.41.07.5.11.99.24,1.47.38.18.06.36.12.54.17.37.13.73.26,1.1.41.14.05.28.1.42.16.46.2.91.42,1.35.66.15.08.3.16.44.25.34.19.68.39,1.01.61.12.08.25.16.38.24.41.29.82.59,1.21.91.11.09.21.19.32.28.32.27.62.54.92.83.1.1.2.2.3.3.37.37.72.75,1.05,1.16.06.07.11.14.17.21.29.36.57.73.83,1.11.07.1.14.2.2.3.29.43.57.87.82,1.33.01.02.02.05.04.08,0,.01.01.02.02.03.12.23.24.46.35.7.12.24.22.48.33.72.04.11.09.21.14.32.09.24.19.48.28.73.09.24.17.49.25.74.04.12.07.23.11.35.13.44.24.89.34,1.35.02.1.05.2.07.3.05.26.1.52.14.79.04.26.07.53.1.8.02.13.03.26.04.39.02.28.05.56.06.84.02.28.03.57.03.85Z"/>
  <path class="cls-3" d="M75.87,3.1c.23.08.46.16.69.24-.03-.01-.05-.02-.08-.02-3.58-1.07-7.37-1.64-11.3-1.64-15.02,0-28.05,8.39-34.45,20.66-2.71,5.17-4.23,11.04-4.23,17.25,0,14.17,7.94,26.52,19.69,33.02,5.61,3.11,12.09,4.88,18.99,4.88,1.11,0,2.2-.05,3.29-.14-7.1,8.42-17.83,13.78-29.84,13.78C17.9,91.13.97,75.15,0,55.06c.47-12.31,4.82-23.62,11.86-32.74C20.68,10.89,33.73,2.88,48.66.64c.02,0,.04-.01.06-.01,2.3-.34,4.64-.55,7.03-.61.49-.01.99-.02,1.49-.02h.4c.34,0,.68.01,1.02.02.51.01,1,.03,1.51.05.3.02.6.04.9.05.4.03.8.06,1.2.1,1.24.1,2.48.25,3.69.44.41.06.82.13,1.22.2,1.61.28,3.2.63,4.77,1.04.65.17,1.31.36,1.95.56.66.21,1.32.42,1.97.64Z"/>
  <path class="cls-2" d="M91.27,11.17c-8.43-1.79-17.83-1.02-26.81,2.76-6.74,2.83-12.44,7.01-16.82,12-9.32,10.61-12.66,24.85-7.41,37.36,1.48,3.51,3.52,6.63,6.01,9.32-11.75-6.5-19.69-18.85-19.69-33.02,0-6.21,1.52-12.08,4.23-17.25C37.18,10.07,50.21,1.68,65.23,1.68c3.93,0,7.72.57,11.3,1.64.03,0,.05.01.08.02,5.29,1.9,10.22,4.55,14.66,7.83Z"/>
</svg>