<?xml version="1.0" encoding="UTF-8" standalone="no"?>
<!DOCTYPE svg PUBLIC "-//W3C//DTD SVG 1.1//EN" "http://www.w3.org/Graphics/SVG/1.1/DTD/svg11.dtd">
<svg width="100%" height="100%" viewBox="0 0 1246 1246" version="1.1" xmlns="http://www.w3.org/2000/svg" xmlns:xlink="http://www.w3.org/1999/xlink" xml:space="preserve" xmlns:serif="http://www.serif.com/" style="fill-rule:evenodd;clip-rule:evenodd;stroke-linejoin:round;stroke-miterlimit:2;">
    <g transform="matrix(1,0,0,1,-2071,0)">
        <g id="Mesa-de-trabajo2" serif:id="Mesa de trabajo2" transform="matrix(1,0,0,1,-0.798938,49.3923)">
            <rect x="2071.8" y="-49.392" width="1246" height="1246" style="fill:none;"/>
            <g transform="matrix(0.703245,0,0,0.703245,756.591,13.4254)">
                <g transform="matrix(1126.62,0,0,1126.62,2276.4,1199.81)">
                    <path d="M0.308,-0.721C0.311,-0.73 0.315,-0.736 0.32,-0.739C0.324,-0.741 0.33,-0.743 0.339,-0.743L0.353,-0.743C0.36,-0.743 0.365,-0.742 0.368,-0.74C0.371,-0.739 0.372,-0.736 0.372,-0.733C0.372,-0.731 0.371,-0.728 0.371,-0.726C0.37,-0.723 0.369,-0.72 0.368,-0.716L0.095,-0.016C0.091,-0.005 0.083,-0 0.071,-0L0.05,-0C0.04,-0 0.036,-0.004 0.036,-0.011C0.036,-0.013 0.036,-0.017 0.038,-0.021L0.308,-0.721Z" style="fill:white;fill-opacity:0.7;fill-rule:nonzero;"/>
                </g>
            </g>
            <g transform="matrix(0.703245,0,0,0.703245,2638.72,798.021)">
                <g transform="matrix(1126.62,0,0,1126.62,0,0)">
                    <path d="M0.441,-0.461C0.448,-0.455 0.449,-0.448 0.443,-0.438L0.403,-0.374C0.396,-0.363 0.388,-0.362 0.38,-0.369C0.355,-0.39 0.331,-0.4 0.308,-0.4C0.274,-0.4 0.246,-0.387 0.223,-0.362C0.2,-0.337 0.189,-0.307 0.189,-0.271L0.189,-0.015C0.189,-0.005 0.184,0 0.174,0L0.08,0C0.07,0 0.065,-0.005 0.065,-0.015L0.065,-0.48C0.065,-0.485 0.066,-0.489 0.069,-0.492C0.072,-0.495 0.076,-0.496 0.081,-0.496L0.135,-0.496C0.142,-0.496 0.147,-0.493 0.151,-0.485L0.173,-0.414C0.189,-0.442 0.21,-0.465 0.238,-0.482C0.265,-0.499 0.293,-0.507 0.323,-0.507C0.342,-0.507 0.363,-0.503 0.384,-0.495C0.405,-0.487 0.424,-0.475 0.441,-0.461Z" style="fill:white;fill-rule:nonzero;"/>
                </g>
            </g>
        </g>
    </g>
</svg>
