<?xml version="1.0" encoding="UTF-8" standalone="no"?>
<!DOCTYPE svg PUBLIC "-//W3C//DTD SVG 1.1//EN" "http://www.w3.org/Graphics/SVG/1.1/DTD/svg11.dtd">
<svg width="100%" height="100%" viewBox="0 0 191 191" version="1.1" xmlns="http://www.w3.org/2000/svg" xmlns:xlink="http://www.w3.org/1999/xlink" xml:space="preserve" xmlns:serif="http://www.serif.com/" style="fill-rule:evenodd;clip-rule:evenodd;stroke-linejoin:round;stroke-miterlimit:2;">
    <g id="Mesa-de-trabajo1" serif:id="Mesa de trabajo1" transform="matrix(1,0,0,1,-179.51,256.041)">
        <rect x="179.51" y="-256.041" width="190.373" height="190.373" style="fill:none;"/>
        <clipPath id="_clip1">
            <rect x="179.51" y="-256.041" width="190.373" height="190.373"/>
        </clipPath>
        <g clip-path="url(#_clip1)">
            <g>
                <g transform="matrix(1.26915,0,0,1.26915,-99.5543,-256.365)">
                    <path d="M284.304,0.255C284.423,3.436 284.423,6.617 284.423,9.93L229.616,9.93L229.616,64.701L219.883,64.701L219.883,0.375L284.304,0.255Z" style="fill:white;fill-rule:nonzero;"/>
                </g>
                <g transform="matrix(1.26915,0,0,1.26915,-99.5543,-256.365)">
                    <path d="M369.883,64.676C366.789,64.796 363.695,64.796 360.481,64.796L360.481,9.99L305.342,9.99L305.342,0.375L369.883,0.255L369.883,64.676Z" style="fill:white;fill-rule:nonzero;"/>
                </g>
                <g transform="matrix(1.26915,0,0,1.26915,-99.5543,-256.365)">
                    <path d="M220.002,150.255L219.883,86.057L229.535,86.057L229.535,141.03L284.423,141.03L284.423,150.135L220.002,150.255Z" style="fill:white;fill-rule:nonzero;"/>
                </g>
                <g transform="matrix(1.26915,0,0,1.26915,-99.5543,-256.365)">
                    <path d="M305.461,150.255C305.342,147.245 305.342,144.236 305.342,141.127L360.375,141.127L360.375,85.969L369.763,85.969L369.883,150.255L305.461,150.255Z" style="fill:white;fill-rule:nonzero;"/>
                </g>
                <g transform="matrix(1.26915,0,0,1.26915,-99.5543,-256.365)">
                    <path d="M320.195,48.399C323.422,51.61 325.041,55.325 325.016,59.874L324.985,103.356L324.985,104.786L313.76,104.786L313.76,103.489L313.76,62.046C313.759,58.651 311.491,55.324 306.583,56.126C303.046,56.704 301.515,58.615 301.515,62.208L301.515,104.755L288.759,104.755L288.759,62.391C288.759,58.261 287.687,56.915 283.635,56.117C280.632,55.525 277.981,57.174 277.198,59.411C276.956,60.102 276.789,60.861 276.788,61.589L276.77,103.286L276.77,104.762L265.546,104.762L265.546,103.431L265.534,58.418C265.528,55.118 266.887,52.399 268.845,49.898C271.43,46.594 274.937,45.071 279.026,44.622C283.702,44.107 288.291,44.141 292.571,46.44C293.477,46.926 294.3,47.568 295.212,48.173C298.447,45.454 302.326,44.418 306.565,44.374C309.467,44.344 312.39,44.301 315.093,45.448C316.862,46.199 318.458,47.357 320.195,48.399L320.195,48.399Z" style="fill:white;fill-rule:nonzero;"/>
                </g>
            </g>
        </g>
    </g>
</svg>
