<?xml version="1.0" encoding="UTF-8" standalone="no"?>
<!DOCTYPE svg PUBLIC "-//W3C//DTD SVG 1.1//EN" "http://www.w3.org/Graphics/SVG/1.1/DTD/svg11.dtd">
<svg width="100%" height="100%" viewBox="0 0 1412 1412" version="1.1" xmlns="http://www.w3.org/2000/svg" xmlns:xlink="http://www.w3.org/1999/xlink" xml:space="preserve" xmlns:serif="http://www.serif.com/" style="fill-rule:evenodd;clip-rule:evenodd;stroke-linejoin:round;stroke-miterlimit:2;">
    <g id="Mesa-de-trabajo1" serif:id="Mesa de trabajo1" transform="matrix(1,0,0,1,795.375,1562.66)">
        <rect x="-795.375" y="-1562.66" width="1411.26" height="1411.26" style="fill:none;"/>
        <g transform="matrix(4.86371,0,0,4.86371,-807.632,-1998.45)">
            <path d="M147.599,89.6C153.681,92.899 159.761,96.566 165.6,100.16C174.53,105.661 183.898,110.335 192.72,115.761C195.409,117.415 198.189,118.43 200.88,120.08C213.361,127.735 226.565,134.733 239.04,142.4C247.029,147.311 255.387,151.488 263.28,156.32C265.934,157.946 268.649,159.313 271.2,160.88C271.763,161.226 273.016,161.322 273.36,161.84L273.36,307.28C268.109,309.617 263.058,313.193 258.239,316.16C251.11,320.553 243.665,324.319 236.64,328.64C233.55,330.54 230.374,331.782 227.279,333.681C216.201,340.475 204.512,346.793 193.44,353.601C190.349,355.5 187.176,356.742 184.08,358.64C175.549,363.871 166.567,368.48 157.92,373.76C155.581,375.188 149.88,379.47 147.12,379.76C144.876,377.606 141.44,376.63 138.72,374.96C132.087,370.891 125.065,367.339 118.319,363.2C97.256,350.28 75.074,338.67 54,325.761C46.154,320.955 37.959,316.868 30.24,312.08C28.947,311.279 22.334,308.268 21.84,307.52L21.84,162.32C25.327,160.693 28.696,158.299 31.919,156.32C39.605,151.602 47.625,147.54 55.2,142.88C58.289,140.98 61.465,139.739 64.56,137.84C78.785,129.117 93.785,121.137 108,112.4C116.783,107.002 125.952,102.357 134.64,97.041C137.69,95.173 140.821,93.564 143.76,91.761C145.069,90.957 146.572,90.659 147.599,89.6ZM147.599,111.201C145.878,113.226 142.487,114.097 140.16,115.52C135.012,118.668 129.567,121.422 124.319,124.64C104.507,136.793 83.639,147.751 63.84,159.92C58.596,163.144 53.145,165.89 47.999,169.041C46.898,169.715 41.229,172.262 40.8,172.88L40.8,296.72C43.456,297.384 46.049,299.69 48.239,301.04C53.869,304.513 59.75,307.475 65.279,310.88C68.919,313.122 72.672,314.651 76.32,316.88C90.761,325.71 105.932,333.435 120.479,342.321C127.119,346.377 134.138,349.951 140.879,354.081C142.119,354.841 146.801,358.228 147.84,357.92C150.516,357.25 153.072,354.957 155.279,353.601C161.312,349.891 167.596,346.688 173.52,343.041C177.154,340.802 180.916,339.275 184.56,337.04C198.23,328.655 212.64,320.942 226.319,312.561C232.916,308.519 239.76,305.022 246.24,301.04C247.552,300.233 254.127,297.253 254.64,296.48L254.64,172.64C251.71,171.937 248.001,168.886 245.52,167.36C237.525,162.448 229.174,158.282 221.28,153.44C214.501,149.282 207.427,146.082 200.64,141.92C183.298,131.286 165.189,121.533 147.599,111.201ZM152.64,208.4C155.121,208.491 156.881,209.555 158.639,210.32C167.172,214.035 171.992,220.693 174.24,230.721C175.287,235.391 173.389,239.575 173.04,243.44C175.558,244.2 177.887,246.222 180,247.52C183.489,249.662 187.089,251.133 190.56,253.28C192.485,254.473 194.658,256.577 197.279,256.881C197.95,254.98 200.289,253.89 201.84,252.8C206.907,249.244 215.899,245.962 224.399,248.72C234.787,252.091 240.452,258.842 243.12,270.08C243.867,273.231 243.807,278.05 242.879,281.12C242.194,283.391 241.207,286.128 240,288.081C235.161,295.904 222.867,304.35 209.04,299.84C206.389,298.975 203.5,297.533 201.36,296.001C196.201,292.304 193.21,287.195 191.28,280.16C190.73,278.162 189.909,274.19 190.56,271.28C191.009,269.268 191.72,267.23 192,265.28C188.689,263.784 185.64,261.604 182.64,259.76C179.545,257.861 176.376,256.611 173.28,254.72C171.625,253.71 169.967,252.259 168,251.601C167.229,253.755 164.529,255.195 162.72,256.4C155.307,261.337 145.249,262.733 135.84,258.56C133.632,257.582 131.023,255.648 129.359,254C128.63,253.279 127.881,251.868 126.96,252.08C125.178,252.515 123.801,253.86 122.4,254.72C118.136,257.337 113.709,259.79 109.44,262.16C107.981,262.97 103.598,264.72 103.2,266.241C104.023,267.295 103.79,268.744 104.16,270.32C105.881,277.679 102.963,284.719 100.08,289.04C96.792,293.97 92.405,297.666 86.4,299.84C72.952,304.708 60.025,296.157 55.2,288.32C53.856,286.139 52.801,283.261 52.079,280.64C51.407,278.195 51.214,273.702 51.839,271.04C52.245,269.315 52.047,268.053 52.559,266.48C55.08,258.76 60.423,253.215 67.68,250.16C70.763,248.862 76.172,246.837 81.36,248C85.612,248.955 89.5,249.997 92.64,252.08C94.378,253.235 96.949,256.697 98.88,257.12C100.54,255.602 102.903,254.973 104.88,253.76C108.869,251.313 113.13,248.773 117.119,246.321C118.752,245.317 122.134,244.773 122.4,242.48C120.643,240.208 120.696,233.871 121.44,230.721C121.599,229.52 121.76,228.32 121.92,227.12C124.221,219.98 128.759,214.61 134.64,211.04C136.332,210.013 138.72,209.251 140.64,208.641C141.452,208.382 142.203,208.551 142.8,208.161C143.692,206.724 143.04,202.477 143.04,200.48L143.04,180.08C139.512,179.853 136.523,178.186 134.159,176.72C127.112,172.351 123.625,167.382 121.44,158C121.05,156.33 120.798,153.824 121.2,152C121.86,149.015 121.62,146.753 122.639,144.32C126.456,135.213 133.367,129.9 144,127.52C148.316,126.555 153.516,127.937 156.239,128.96C166.067,132.655 173.998,140.295 174,153.68C174,156.504 173.996,158.897 173.28,161.121C170.898,168.519 166.407,173.75 160.32,177.44C158.343,178.639 154.643,178.919 152.879,180.08C151.959,181.559 152.64,185.951 152.64,188L152.64,208.4ZM77.28,167.84C90.509,167.902 98.523,174.957 102.48,184.401C103.641,187.171 105.638,192.14 104.64,196.64C104.209,198.582 103.699,200.722 103.439,202.64C105.238,203.093 106.594,204.417 108,205.28C110.463,206.793 113.141,207.682 115.44,209.361C116.392,210.057 116.798,211.384 117.599,212.24C118.014,216.744 115.59,221.497 110.16,219.68C107.241,218.704 104.505,216.424 102,214.88C101.229,214.406 97.736,212.442 97.44,212.72C96.18,213.564 95.296,214.97 94.08,215.84C90.541,218.373 86.367,219.777 81.36,220.88C76.158,222.026 70.783,220.031 67.68,218.72C57.009,214.213 46.961,200.119 53.28,184.401C55.87,177.953 61.316,172.431 67.68,169.76C69.68,169.201 71.679,168.641 73.679,168.08C74.86,167.808 76.434,168.355 77.28,167.84ZM75.84,179.12C74.48,179.52 73.119,179.92 71.76,180.32C67.998,181.962 64.681,185.844 63.36,189.921C59.761,201.019 70.494,212.751 81.6,209.84C89.945,207.653 98.1,196.946 91.919,186.8C88.812,181.7 84.283,179.01 75.84,179.12ZM215.04,167.84C228.945,167.668 237.558,174.577 241.68,184.16C246.687,195.804 241.223,209.764 234,215.12C228.238,219.393 217.11,223.417 207.6,219.441C205.525,218.573 203.156,217.368 201.36,216.08C199.974,215.088 199.012,213.055 197.04,212.72C195.55,214.16 193.347,214.724 191.52,215.84C189.729,216.935 187.73,218.621 185.76,219.441C184.589,219.928 182.545,220.18 181.2,219.68C179.319,218.982 178.836,217.39 177.6,216.08C177.194,209.837 179.872,209.619 183.84,207.2C185.4,206.25 187.08,205.031 188.64,204.081C189.8,203.373 190.987,203.233 191.76,202.16C190.001,199.864 190.234,192.846 191.04,189.68C193.389,180.444 197.643,174.364 205.199,170.481C207.36,169.76 209.519,169.041 211.68,168.321C212.734,168.044 214.212,168.346 215.04,167.84ZM214.8,179.12C213.44,179.52 212.079,179.92 210.719,180.32C206.958,181.962 203.641,185.844 202.32,189.921C198.721,201.019 209.454,212.751 220.56,209.84C228.905,207.653 237.06,196.946 230.88,186.8C227.772,181.7 223.243,179.01 214.8,179.12ZM153.359,288.32C167.116,289.92 179.043,308.315 172.32,324.321C168.361,333.744 161.129,338.464 150,340.881C144.716,342.028 139.458,339.608 136.32,338.241C126.054,333.768 116.778,320.059 122.4,304.641C124.436,299.057 128.936,294.126 133.68,291.2C135.44,290.401 137.199,289.6 138.959,288.8C139.876,288.464 140.889,288.573 141.6,288.081C142.074,287.328 141.839,285.406 141.839,284.241L141.839,274.4C142.321,273.79 142.341,272.915 142.8,272.241C143.469,271.253 144.821,270.888 145.68,270.08C155.574,269.251 153.518,278.911 153.359,288.32ZM145.2,298.88C143.84,299.28 142.479,299.681 141.12,300.08C137.358,301.722 134.041,305.604 132.72,309.68C129.121,320.779 139.854,332.511 150.96,329.601C159.305,327.413 167.46,316.706 161.28,306.561C158.172,301.46 153.643,298.77 145.2,298.88Z" style="fill:white;"/>
        </g>
    </g>
</svg>
